<svg xmlns="http://www.w3.org/2000/svg" class="railroad" width="680" height="1178" viewBox="0 0 680 1178"><style>svg.railroad{background:#fff;font-family:monospace;font-size:13px}.rr-line{stroke:#334;stroke-width:2;fill:none}.rr-cap{fill:#334}.rr-term{fill:#e8f0ff;stroke:#334;stroke-width:2}.rr-nonterm{fill:#fff7e8;stroke:#334;stroke-width:2}.rr-label{fill:#111;text-anchor:middle;dominant-baseline:middle}.rr-comment{fill:#666;font-style:italic;text-anchor:middle;dominant-baseline:middle}.rr-title{fill:#113;font-weight:bold;font-size:15px}a:hover .rr-nonterm{fill:#ffe6b3;cursor:pointer}</style><g><g id="markdown"><text class="rr-title" x="16" y="31">markdown</text><circle class="rr-cap" cx="153.5" cy="42" r="3"/><path class="rr-line" d="M153.5 42V56"/><path class="rr-line" d="M153.5 56V74"/><path class="rr-line" d="M103 74H204"/><path class="rr-line" d="M103 252H204"/><path class="rr-line" d="M153.5 252V270"/><path class="rr-line" d="M103 74V92"/><path class="rr-line" d="M103 92V110"/><path class="rr-line" d="M54 110H152"/><path class="rr-line" d="M54 216H152"/><path class="rr-line" d="M103 216V234"/><path class="rr-line" d="M54 110V128"/><rect class="rr-term" x="36" y="128" width="36" height="26" rx="13" ry="13"/><text class="rr-label" x="54" y="141">LN</text><path class="rr-line" d="M54 154V172"/><a href="#newline"><rect class="rr-nonterm" x="16" y="172" width="76" height="26" rx="4" ry="4"/><text class="rr-label" x="54" y="185">newline</text></a><path class="rr-line" d="M54 198V216"/><path class="rr-line" d="M152 110V128"/><a href="#record"><rect class="rr-nonterm" x="118" y="128" width="68" height="26" rx="4" ry="4"/><text class="rr-label" x="152" y="141">record</text></a><path class="rr-line" d="M152 154V216"/><path class="rr-line" d="M103 234V252"/><path class="rr-line" d="M204 74V92"/><path class="rr-line" d="M204 92V104"/><path class="rr-line" d="M204 104V252"/><path class="rr-line" d="M153.5 270V284"/><circle class="rr-cap" cx="153.5" cy="284" r="3"/></g><g id="val"><text class="rr-title" x="16" y="333">val</text><circle class="rr-cap" cx="228.5" cy="344" r="3"/><path class="rr-line" d="M228.5 344V358"/><path class="rr-line" d="M228.5 358V376"/><path class="rr-line" d="M153 376H304"/><path class="rr-line" d="M153 510H304"/><path class="rr-line" d="M228.5 510V528"/><path class="rr-line" d="M153 376V394"/><path class="rr-line" d="M153 394V412"/><path class="rr-line" d="M42 412H264"/><path class="rr-line" d="M42 474H264"/><path class="rr-line" d="M153 474V492"/><path class="rr-line" d="M42 412V430"/><a href="#text"><rect class="rr-nonterm" x="16" y="430" width="52" height="26" rx="4" ry="4"/><text class="rr-label" x="42" y="443">text</text></a><path class="rr-line" d="M42 456V474"/><path class="rr-line" d="M116 412V430"/><a href="#map"><rect class="rr-nonterm" x="94" y="430" width="44" height="26" rx="4" ry="4"/><text class="rr-label" x="116" y="443">map</text></a><path class="rr-line" d="M116 456V474"/><path class="rr-line" d="M190 412V430"/><a href="#list"><rect class="rr-nonterm" x="164" y="430" width="52" height="26" rx="4" ry="4"/><text class="rr-label" x="190" y="443">list</text></a><path class="rr-line" d="M190 456V474"/><path class="rr-line" d="M264 412V430"/><rect class="rr-term" x="242" y="430" width="44" height="26" rx="13" ry="13"/><text class="rr-label" x="264" y="443">VAL</text><path class="rr-line" d="M264 456V474"/><path class="rr-line" d="M153 492V510"/><path class="rr-line" d="M304 376V394"/><path class="rr-line" d="M304 394V406"/><path class="rr-line" d="M304 406V510"/><path class="rr-line" d="M228.5 528V542"/><circle class="rr-cap" cx="228.5" cy="542" r="3"/></g><g id="map"><text class="rr-title" x="16" y="591">map</text><circle class="rr-cap" cx="64" cy="602" r="3"/><path class="rr-line" d="M64 602V616"/><rect class="rr-term" x="46" y="616" width="36" height="26" rx="13" ry="13"/><text class="rr-label" x="64" y="629">OB</text><path class="rr-line" d="M64 642V660"/><path class="rr-line" d="M64 660V678"/><path class="rr-line" d="M42 678H86"/><path class="rr-line" d="M42 740H86"/><path class="rr-line" d="M64 740V758"/><path class="rr-line" d="M42 678V696"/><a href="#pair"><rect class="rr-nonterm" x="16" y="696" width="52" height="26" rx="4" ry="4"/><text class="rr-label" x="42" y="709">pair</text></a><path class="rr-line" d="M42 722V740"/><path class="rr-line" d="M86 678V696"/><path class="rr-line" d="M86 696V708"/><path class="rr-line" d="M86 708V740"/><path class="rr-line" d="M64 758V776"/><rect class="rr-term" x="46" y="776" width="36" height="26" rx="13" ry="13"/><text class="rr-label" x="64" y="789">CB</text><path class="rr-line" d="M64 802V816"/><circle class="rr-cap" cx="64" cy="816" r="3"/></g><g id="list"><text class="rr-title" x="16" y="865">list</text><circle class="rr-cap" cx="169" cy="876" r="3"/><path class="rr-line" d="M169 876V890"/><path class="rr-line" d="M169 890V908"/><path class="rr-line" d="M112 908H226"/><path class="rr-line" d="M112 1086H226"/><path class="rr-line" d="M169 1086V1104"/><path class="rr-line" d="M112 908V926"/><path class="rr-line" d="M112 926V944"/><path class="rr-line" d="M42 944H182"/><path class="rr-line" d="M42 1050H182"/><path class="rr-line" d="M112 1050V1068"/><path class="rr-line" d="M42 944V962"/><a href="#elem"><rect class="rr-nonterm" x="16" y="962" width="52" height="26" rx="4" ry="4"/><text class="rr-label" x="42" y="975">elem</text></a><path class="rr-line" d="M42 988V1050"/><path class="rr-line" d="M112 944V962"/><rect class="rr-term" x="94" y="962" width="36" height="26" rx="13" ry="13"/><text class="rr-label" x="112" y="975">OS</text><path class="rr-line" d="M112 988V1050"/><path class="rr-line" d="M182 944V962"/><rect class="rr-term" x="164" y="962" width="36" height="26" rx="13" ry="13"/><text class="rr-label" x="182" y="975">OS</text><path class="rr-line" d="M182 988V1006"/><a href="#elem"><rect class="rr-nonterm" x="156" y="1006" width="52" height="26" rx="4" ry="4"/><text class="rr-label" x="182" y="1019">elem</text></a><path class="rr-line" d="M182 1032V1050"/><path class="rr-line" d="M112 1068V1086"/><path class="rr-line" d="M226 908V926"/><path class="rr-line" d="M226 926V938"/><path class="rr-line" d="M226 938V1086"/><path class="rr-line" d="M169 1104V1122"/><rect class="rr-term" x="151" y="1122" width="36" height="26" rx="13" ry="13"/><text class="rr-label" x="169" y="1135">CS</text><path class="rr-line" d="M169 1148V1162"/><circle class="rr-cap" cx="169" cy="1162" r="3"/></g><g id="pair"><text class="rr-title" x="360" y="31">pair</text><circle class="rr-cap" cx="382" cy="42" r="3"/><path class="rr-line" d="M382 42V56"/><path class="rr-line" d="M382 56V74"/><rect class="rr-term" x="360" y="74" width="44" height="26" rx="13" ry="13"/><text class="rr-label" x="382" y="87">KEY</text><path class="rr-line" d="M382 100V118"/><rect class="rr-term" x="364" y="118" width="36" height="26" rx="13" ry="13"/><text class="rr-label" x="382" y="131">CL</text><path class="rr-line" d="M382 144V162"/><a href="#val"><rect class="rr-nonterm" x="360" y="162" width="44" height="26" rx="4" ry="4"/><text class="rr-label" x="382" y="175">val</text></a><path class="rr-line" d="M382 188V206"/><path class="rr-line" d="M382 197H429"/><path class="rr-line" d="M382 65H429"/><path class="rr-line" d="M429 144V197"/><path class="rr-line" d="M429 65V118"/><rect class="rr-term" x="414" y="118" width="30" height="26" rx="13" ry="13"/><text class="rr-label" x="429" y="131">,</text><path class="rr-line" d="M382 206V220"/><circle class="rr-cap" cx="382" cy="220" r="3"/></g><g id="elem"><text class="rr-title" x="360" y="269">elem</text><circle class="rr-cap" cx="382" cy="280" r="3"/><path class="rr-line" d="M382 280V294"/><path class="rr-line" d="M382 294V312"/><a href="#val"><rect class="rr-nonterm" x="360" y="312" width="44" height="26" rx="4" ry="4"/><text class="rr-label" x="382" y="325">val</text></a><path class="rr-line" d="M382 338V356"/><path class="rr-line" d="M382 347H429"/><path class="rr-line" d="M382 303H429"/><path class="rr-line" d="M429 338V347"/><path class="rr-line" d="M429 303V312"/><rect class="rr-term" x="414" y="312" width="30" height="26" rx="13" ry="13"/><text class="rr-label" x="429" y="325">,</text><path class="rr-line" d="M382 356V370"/><circle class="rr-cap" cx="382" cy="370" r="3"/></g><g id="newline"><text class="rr-title" x="360" y="419">newline</text><circle class="rr-cap" cx="396" cy="430" r="3"/><path class="rr-line" d="M396 430V444"/><path class="rr-line" d="M396 444V462"/><rect class="rr-term" x="378" y="462" width="36" height="26" rx="13" ry="13"/><text class="rr-label" x="396" y="475">LN</text><path class="rr-line" d="M396 488V506"/><path class="rr-line" d="M396 506V524"/><path class="rr-line" d="M378 524H414"/><path class="rr-line" d="M378 586H414"/><path class="rr-line" d="M396 586V604"/><path class="rr-line" d="M378 524V542"/><rect class="rr-term" x="360" y="542" width="36" height="26" rx="13" ry="13"/><text class="rr-label" x="378" y="555">LN</text><path class="rr-line" d="M378 568V586"/><path class="rr-line" d="M414 524V542"/><path class="rr-line" d="M414 542V554"/><path class="rr-line" d="M414 554V586"/><path class="rr-line" d="M396 604V622"/><path class="rr-line" d="M396 613H450"/><path class="rr-line" d="M396 453H450"/><path class="rr-line" d="M450 546V613"/><path class="rr-line" d="M450 453V520"/><rect class="rr-term" x="432" y="520" width="36" height="26" rx="13" ry="13"/><text class="rr-label" x="450" y="533">LN</text><path class="rr-line" d="M396 622V640"/><a href="#record"><rect class="rr-nonterm" x="362" y="640" width="68" height="26" rx="4" ry="4"/><text class="rr-label" x="396" y="653">record</text></a><path class="rr-line" d="M396 666V680"/><circle class="rr-cap" cx="396" cy="680" r="3"/></g><g id="record"><text class="rr-title" x="360" y="729">record</text><circle class="rr-cap" cx="386" cy="740" r="3"/><path class="rr-line" d="M386 740V754"/><a href="#list"><rect class="rr-nonterm" x="360" y="754" width="52" height="26" rx="4" ry="4"/><text class="rr-label" x="386" y="767">list</text></a><path class="rr-line" d="M386 780V798"/><rect class="rr-term" x="368" y="798" width="36" height="26" rx="13" ry="13"/><text class="rr-label" x="386" y="811">LN</text><path class="rr-line" d="M386 824V838"/><circle class="rr-cap" cx="386" cy="838" r="3"/></g><g id="text"><text class="rr-title" x="360" y="887">text</text><circle class="rr-cap" cx="573.5" cy="898" r="3"/><path class="rr-line" d="M573.5 898V912"/><path class="rr-line" d="M573.5 912V930"/><path class="rr-line" d="M491 930H656"/><path class="rr-line" d="M491 1108H656"/><path class="rr-line" d="M573.5 1108V1126"/><path class="rr-line" d="M491 930V948"/><path class="rr-line" d="M491 948V966"/><path class="rr-line" d="M382 966H600"/><path class="rr-line" d="M382 1072H600"/><path class="rr-line" d="M491 1072V1090"/><path class="rr-line" d="M382 966V984"/><rect class="rr-term" x="360" y="984" width="44" height="26" rx="13" ry="13"/><text class="rr-label" x="382" y="997">VAL</text><path class="rr-line" d="M382 1010V1072"/><path class="rr-line" d="M452 966V984"/><rect class="rr-term" x="434" y="984" width="36" height="26" rx="13" ry="13"/><text class="rr-label" x="452" y="997">SP</text><path class="rr-line" d="M452 1010V1028"/><rect class="rr-term" x="430" y="1028" width="44" height="26" rx="13" ry="13"/><text class="rr-label" x="452" y="1041">VAL</text><path class="rr-line" d="M452 1054V1072"/><path class="rr-line" d="M518 966V984"/><rect class="rr-term" x="500" y="984" width="36" height="26" rx="13" ry="13"/><text class="rr-label" x="518" y="997">SP</text><path class="rr-line" d="M518 1010V1072"/><path class="rr-line" d="M600 966V984"/><rect class="rr-term" x="582" y="984" width="36" height="26" rx="13" ry="13"/><text class="rr-label" x="600" y="997">SP</text><path class="rr-line" d="M600 1010V1028"/><path class="rr-line" d="M600 1028V1054"/><text class="rr-comment" x="600" y="1041">dynamic</text><path class="rr-line" d="M600 1054V1072"/><path class="rr-line" d="M491 1090V1108"/><path class="rr-line" d="M656 930V948"/><path class="rr-line" d="M656 948V960"/><path class="rr-line" d="M656 960V1108"/><path class="rr-line" d="M573.5 1126V1140"/><circle class="rr-cap" cx="573.5" cy="1140" r="3"/></g></g></svg>